<?xml version="1.0" encoding="UTF-8" standalone="no"?>
<!-- Created with Inkscape (http://www.inkscape.org/) -->

<svg
   version="1.1"
   id="svg1"
   width="420.70667"
   height="113.72"
   viewBox="0 0 420.70667 113.72"
   xmlns="http://www.w3.org/2000/svg"
   xmlns:svg="http://www.w3.org/2000/svg">
  <defs
     id="defs1" />
  <g
     id="g1">
    <path
       id="path1"
       d="M 28.3468,0 C 28.3468,15.6557 15.6557,28.3468 0,28.3468 -15.6557,28.3468 -28.3468,15.6557 -28.3468,0 c 0,-15.6557 12.6911,-28.3468 28.3468,-28.3468 15.6557,0 28.3468,12.6911 28.3468,28.3468 z"
       style="fill:none;stroke:#000000;stroke-width:0.79701;stroke-linecap:butt;stroke-linejoin:miter;stroke-miterlimit:10;stroke-dasharray:none;stroke-opacity:1"
       transform="matrix(1.3333333,0,0,-1.3333333,38.326667,43.042667)" />
    <path
       id="path2"
       d="m -28.3468,0 c 0,-3.91391 12.6911,-7.08669 28.3468,-7.08669 15.6557,0 28.3468,3.17278 28.3468,7.08669"
       style="fill:none;stroke:#000000;stroke-width:0.79701;stroke-linecap:butt;stroke-linejoin:miter;stroke-miterlimit:10;stroke-dasharray:none;stroke-opacity:1"
       transform="matrix(1.3333333,0,0,-1.3333333,38.326667,43.042667)" />
    <path
       id="path3"
       d="M 28.3468,0 C 28.3468,3.91391 15.6557,7.08669 0,7.08669 -15.6557,7.08669 -28.3468,3.91391 -28.3468,0"
       style="fill:none;stroke:#000000;stroke-width:0.79701;stroke-linecap:butt;stroke-linejoin:miter;stroke-miterlimit:10;stroke-dasharray:2.98883, 2.98883;stroke-dashoffset:0;stroke-opacity:1"
       transform="matrix(1.3333333,0,0,-1.3333333,38.326667,43.042667)" />
    <path
       id="path4"
       d="m 4.91075,-4.6411719 c 0,-0.082031 -0.070312,-0.082031 -0.1875,-0.082031 H 0.8560625 c -0.17578125,0 -0.17578125,0.011719 -0.22265625,0.140625 l -0.421875,1.2304687 c -0.0117188,0.011719 -0.046875,0.1289063 -0.046875,0.1289063 0,0.035156 0.0351563,0.070312 0.0820313,0.070312 0.0703125,0 0.0820313,-0.035156 0.12890625,-0.140625 0.375,-1.0898438 0.55078125,-1.2070313 1.5820312,-1.2070313 h 0.2695312 c 0.1992189,0 0.1992189,0.023437 0.1992189,0.082031 0,0.035156 -0.023437,0.1171875 -0.023437,0.140625 L 1.465438,-0.55132873 c -0.058594,0.2578125 -0.082031,0.33984375 -0.8320312,0.33984375 -0.24609375,0 -0.29296875,0 -0.29296875,0.12890625 0,0.082031255 0.0820313,0.082031255 0.1171875,0.082031255 0.1875,0 0.38671875,-0.011718755 0.57421865,-0.011718755 L 1.6295,-0.02398438 2.2037187,-0.01226563 c 0.1992188,0 0.4101563,0.011718755 0.609375,0.011718755 0.070312,0 0.1523438,0 0.1523438,-0.140625005 0,-0.0703125 -0.058594,-0.0703125 -0.234375,-0.0703125 -0.1757813,0 -0.2695313,0 -0.4453125,-0.0234375 -0.2109375,-0.0117188 -0.2578125,-0.0351563 -0.2578125,-0.15234375 0,0 0,-0.0351563 0.023437,-0.140625 L 2.9771562,-4.2310156 c 0.046875,-0.1992188 0.082031,-0.234375 0.1640625,-0.2578125 0.058594,-0.011719 0.2929688,-0.011719 0.4335938,-0.011719 0.703125,0 1.0195312,0.023437 1.0195312,0.5625 0,0.1054688 -0.023437,0.3867188 -0.058594,0.5625 0,0.023437 -0.011719,0.1171875 -0.011719,0.1289063 0,0.046875 0.011719,0.09375 0.082031,0.09375 0.070312,0 0.082031,-0.058594 0.1054687,-0.1640625 l 0.1875,-1.2070313 c 0,-0.035156 0.011719,-0.09375 0.01172,-0.1171873 z m 4.5058594,4.87500002 c 0,-0.76171875 -0.09375,-1.31250002 -0.4101563,-1.80468752 -0.2226562,-0.3164062 -0.6445312,-0.5976562 -1.2070312,-0.5976562 -1.6171875,0 -1.6171875,1.89843747 -1.6171875,2.40234372 0,0.50390625 0,2.36718748 1.6171875,2.36718748 1.6171875,0 1.6171875,-1.86328123 1.6171875,-2.36718748 z m -0.6328125,-0.09375 c 0,0.515625 0,1.04296878 -0.09375,1.47656248 -0.140625,0.6328125 -0.609375,0.7851563 -0.890625,0.7851563 -0.3164063,0 -0.75,-0.1875 -0.890625,-0.7617188 -0.09375,-0.4101562 -0.09375,-0.98437498 -0.09375,-1.49999998 0,-0.50390625 0,-1.03125 0.1054687,-1.41796872 0.1523438,-0.5507813 0.5976563,-0.6914063 0.8789063,-0.6914063 0.375,0 0.7382812,0.2226563 0.8671875,0.6328125 0.1054687,0.37500002 0.1171875,0.87890627 0.1171875,1.47656252 z M 18.091414,-2.4146094 c 0,-0.082031 -0.07031,-0.140625 -0.140625,-0.140625 h -4.371094 c -0.07031,0 -0.140625,0.058594 -0.140625,0.140625 0,0.070312 0.07031,0.1289063 0.140625,0.1289063 h 4.371094 c 0.07031,0 0.140625,-0.058594 0.140625,-0.1289063 z m 0,1.3476563 c 0,-0.082031 -0.07031,-0.140625 -0.140625,-0.140625 h -4.371094 c -0.07031,0 -0.140625,0.058594 -0.140625,0.140625 0,0.0820312 0.07031,0.14062497 0.140625,0.14062497 h 4.371094 c 0.07031,0 0.140625,-0.0585938 0.140625,-0.14062497 z m 9.336914,-0.234375 c 0,-0.6914063 -0.632812,-1.3125 -1.792969,-1.3125 -0.02344,0 -0.269531,0 -0.515625,-0.070312 v -1.875 c 0.222657,-0.058594 0.410157,-0.082031 0.5625,-0.082031 0.597657,0 1.171875,0.328125 1.453125,0.9492188 0.03516,0.1054687 0.07031,0.1640625 0.152344,0.1640625 0.08203,0 0.140625,-0.070312 0.140625,-0.140625 0,-0.1523438 -0.515625,-1.2421875 -1.746094,-1.2421875 -0.914062,0 -1.734375,0.5507812 -1.734375,1.359375 0,0.9257812 1.101563,1.2070312 1.628907,1.21875 0.304687,0 0.820312,0 1.265625,0.3632812 0.222656,0.1992188 0.304687,0.4453125 0.304687,0.6679688 0,0.70312497 -0.714844,1.17187497 -1.453125,1.17187497 -0.433594,0 -0.75,-0.17578125 -0.902344,-0.26953125 -0.375,-0.26953125 -0.503906,-0.5625 -0.574218,-0.75000002 -0.02344,-0.046875 -0.07031,-0.082031 -0.128907,-0.082031 -0.07031,0 -0.140625,0.070312 -0.140625,0.140625 0,0.15234372 0.515625,1.24218747 1.746094,1.24218747 0.914063,0 1.734375,-0.59765625 1.734375,-1.45312597 z m -2.589844,-1.4765625 c -0.210937,-0.082031 -0.609375,-0.2929688 -0.609375,-0.7734375 0,-0.4570313 0.339844,-0.7617188 0.609375,-0.890625 z m 8.334961,-2.1035157 H 32.93907 c -0.02344,0.1523438 -0.08203,0.5625 -0.175781,0.6328125 -0.05859,0.035156 -0.597656,0.035156 -0.691406,0.035156 H 30.78282 c 0.738282,-0.6445313 0.984375,-0.84375 1.394532,-1.171875 0.515625,-0.4101563 0.996093,-0.84375 0.996093,-1.5 0,-0.84375 -0.738281,-1.359375 -1.628906,-1.359375 -0.867187,0 -1.453125,0.609375 -1.453125,1.2421875 0,0.3632812 0.304688,0.3984375 0.375,0.3984375 0.164063,0 0.375,-0.1171875 0.375,-0.375 0,-0.1289063 -0.05859,-0.3632813 -0.421875,-0.3632813 0.222656,-0.5039062 0.691406,-0.65625 1.019531,-0.65625 0.703125,0 1.066407,0.5507813 1.066407,1.1132813 0,0.609375 -0.433594,1.0898437 -0.65625,1.3359375 l -1.6875,1.6640625 c -0.07031,0.058594 -0.07031,0.070312 -0.07031,0.2695312 h 2.882813 z m 0,0"
       style="fill:#000000;fill-opacity:1;fill-rule:nonzero;stroke:none"
       aria-label="ð‘‡&#10;0&#10;=ð•Š&#10;2"
       transform="matrix(1.3333333,0,0,1.3333333,15.577333,104.08667)" />
    <path
       id="path5"
       d="m 141.73404,0 c 0,15.6557 -19.03667,28.3468 -42.52022,28.3468 C 75.73026,28.3468 56.6936,15.6557 56.6936,0 c 0,-15.6557 19.03666,-28.3468 42.52022,-28.3468 23.48355,0 42.52022,12.6911 42.52022,28.3468 z"
       style="fill:none;stroke:#000000;stroke-width:0.79701;stroke-linecap:butt;stroke-linejoin:miter;stroke-miterlimit:10;stroke-dasharray:none;stroke-opacity:1"
       transform="matrix(1.3333333,0,0,-1.3333333,38.326667,43.042667)" />
    <path
       id="path6"
       d="m 120.47392,0 c 0,3.91391 -9.51832,7.08669 -21.2601,7.08669 -11.74177,0 -21.2601,-3.17278 -21.2601,-7.08669 0,-3.91391 9.51833,-7.08669 21.2601,-7.08669 11.74178,0 21.2601,3.17278 21.2601,7.08669 z"
       style="fill:none;stroke:#000000;stroke-width:0.79701;stroke-linecap:butt;stroke-linejoin:miter;stroke-miterlimit:10;stroke-dasharray:none;stroke-opacity:1"
       transform="matrix(1.3333333,0,0,-1.3333333,38.326667,43.042667)" />
    <path
       id="path7"
       d="m 99.21382,-28.3468 c -3.13109,0 -5.66928,4.75915 -5.66928,10.63005 0,5.87088 2.53819,10.63003 5.66928,10.63003"
       style="fill:none;stroke:#000000;stroke-width:0.79701;stroke-linecap:butt;stroke-linejoin:miter;stroke-miterlimit:10;stroke-dasharray:none;stroke-opacity:1"
       transform="matrix(1.3333333,0,0,-1.3333333,38.326667,43.042667)" />
    <path
       id="path8"
       d="m 99.21382,-28.3468 c 3.13109,0 5.66927,4.75915 5.66927,10.63005 0,5.87088 -2.53818,10.63003 -5.66927,10.63003"
       style="fill:none;stroke:#000000;stroke-width:0.79701;stroke-linecap:butt;stroke-linejoin:miter;stroke-miterlimit:10;stroke-dasharray:2.98883, 2.98883;stroke-dashoffset:0;stroke-opacity:1"
       transform="matrix(1.3333333,0,0,-1.3333333,38.326667,43.042667)" />
    <path
       id="path9"
       d="m 99.21382,7.08669 c -2.34825,0 -4.25184,4.75915 -4.25184,10.63003 0,5.8709 1.90359,10.63005 4.25184,10.63005"
       style="fill:none;stroke:#000000;stroke-width:0.79701;stroke-linecap:butt;stroke-linejoin:miter;stroke-miterlimit:10;stroke-dasharray:none;stroke-opacity:1"
       transform="matrix(1.3333333,0,0,-1.3333333,38.326667,43.042667)" />
    <path
       id="path10"
       d="m 99.21382,7.08669 c 2.34825,0 4.25185,4.75915 4.25185,10.63003 0,5.8709 -1.9036,10.63005 -4.25185,10.63005"
       style="fill:none;stroke:#000000;stroke-width:0.79701;stroke-linecap:butt;stroke-linejoin:miter;stroke-miterlimit:10;stroke-dasharray:2.98883, 2.98883;stroke-dashoffset:0;stroke-opacity:1"
       transform="matrix(1.3333333,0,0,-1.3333333,38.326667,43.042667)" />
    <path
       id="path11"
       d="m 4.9106172,-4.6408359 c 0,-0.082031 -0.070312,-0.082031 -0.1875,-0.082031 H 0.85592969 c -0.17578125,0 -0.17578125,0.011719 -0.22265625,0.140625 l -0.421875,1.2304688 c -0.0117188,0.011719 -0.046875,0.1289062 -0.046875,0.1289062 0,0.035156 0.0351563,0.070312 0.0820313,0.070312 0.0703125,0 0.0820313,-0.035156 0.12890625,-0.140625 0.375,-1.0898437 0.55078125,-1.2070312 1.58203131,-1.2070312 h 0.2695312 c 0.1992188,0 0.1992188,0.023437 0.1992188,0.082031 0,0.035156 -0.023437,0.1171875 -0.023437,0.140625 l -0.9375001,3.72656251 c -0.058594,0.2578125 -0.082031,0.33984375 -0.83203121,0.33984375 -0.24609375,0 -0.29296875,0 -0.29296875,0.12890625 0,0.0820312525 0.0820313,0.0820312525 0.1171875,0.0820312525 0.1875,0 0.38671875,-0.0117187525 0.57421866,-0.0117187525 l 0.5976563,-0.01171875 0.5742188,0.01171875 c 0.1992188,0 0.4101563,0.0117187525 0.609375,0.0117187525 0.070312,0 0.1523438,0 0.1523438,-0.1406250025 0,-0.0703125 -0.058594,-0.0703125 -0.234375,-0.0703125 -0.1757813,0 -0.2695313,0 -0.4453125,-0.0234375 -0.2109375,-0.0117188 -0.2578125,-0.0351563 -0.2578125,-0.15234375 0,0 0,-0.0351563 0.023437,-0.140625 L 2.9770234,-4.2306797 c 0.046875,-0.1992187 0.082031,-0.234375 0.1640625,-0.2578125 0.058594,-0.011719 0.2929688,-0.011719 0.4335938,-0.011719 0.703125,0 1.0195312,0.023437 1.0195312,0.5625 0,0.1054687 -0.023437,0.3867187 -0.058594,0.5625 0,0.023437 -0.011719,0.1171875 -0.011719,0.1289062 0,0.046875 0.011719,0.09375 0.082031,0.09375 0.070312,0 0.082031,-0.058594 0.1054687,-0.1640625 l 0.1875,-1.2070312 c 0,-0.035156 0.011719,-0.09375 0.01172,-0.1171872 z M 9.1117891,2.4607266 V 2.2146328 H 8.8539766 c -0.703125,0 -0.703125,-0.09375 -0.703125,-0.328125 v -3.8554687 c 0,-0.1875 -0.011719,-0.1992188 -0.2109375,-0.1992188 -0.4453125,0.4335938 -1.078125,0.4453125 -1.359375,0.4453125 v 0.2460938 c 0.1640625,0 0.6210937,0 1.0078125,-0.1875 v 3.5507812 c 0,0.234375 0,0.328125 -0.6914063,0.328125 H 6.6274141 v 0.2460938 l 1.2421875,-0.023437 z m 8.9794919,-4.875 c 0,-0.082031 -0.07031,-0.140625 -0.140625,-0.140625 h -4.371093 c -0.07031,0 -0.140625,0.058594 -0.140625,0.140625 0,0.070312 0.07031,0.1289062 0.140625,0.1289062 h 4.371093 c 0.07031,0 0.140625,-0.058594 0.140625,-0.1289062 z m 0,1.3476562 c 0,-0.082031 -0.07031,-0.140625 -0.140625,-0.140625 h -4.371093 c -0.07031,0 -0.140625,0.058594 -0.140625,0.140625 0,0.0820313 0.07031,0.14062501 0.140625,0.14062501 h 4.371093 c 0.07031,0 0.140625,-0.0585938 0.140625,-0.14062501 z m 9.539063,-3.5507812 c 0,-0.140625 -0.128906,-0.140625 -0.246094,-0.140625 h -3.386719 c -0.09375,0 -0.246093,0 -0.246093,0.140625 0,0.1289062 0.152343,0.1289062 0.246093,0.1289062 h 1.101563 v 4.24218751 c 0,0.22265625 0.03516,0.2460937525 0.257812,0.2460937525 h 0.679688 c 0.222656,0 0.234375,-0.0234375025 0.234375,-0.2460937525 V -4.4884922 h 1.113281 c 0.117188,0 0.246094,0 0.246094,-0.1289062 z m -1.628906,4.33593746 H 25.380344 V -4.4884922 h 0.621094 z m 7.171875,-6.04394536 h -0.234375 c -0.02344,0.1523438 -0.08203,0.5625 -0.175782,0.6328125 -0.05859,0.035156 -0.597656,0.035156 -0.691406,0.035156 h -1.289062 c 0.738281,-0.6445313 0.984375,-0.84375 1.394531,-1.171875 0.515625,-0.4101563 0.996094,-0.84375 0.996094,-1.5 0,-0.84375 -0.738282,-1.359375 -1.628907,-1.359375 -0.867187,0 -1.453125,0.609375 -1.453125,1.2421875 0,0.3632812 0.304688,0.3984375 0.375,0.3984375 0.164063,0 0.375,-0.1171875 0.375,-0.375 0,-0.1289063 -0.05859,-0.3632813 -0.421875,-0.3632813 0.222657,-0.5039062 0.691407,-0.65625 1.019532,-0.65625 0.703125,0 1.066406,0.5507813 1.066406,1.1132813 0,0.609375 -0.433594,1.0898437 -0.65625,1.3359375 l -1.6875,1.6640625 c -0.07031,0.058594 -0.07031,0.070312 -0.07031,0.2695312 h 2.882813 z m 0,0"
       style="fill:#000000;fill-opacity:1;fill-rule:nonzero;stroke:none"
       aria-label="ð‘‡&#10;1&#10;=ð•‹&#10;2"
       transform="matrix(1.3333333,0,0,1.3333333,147.86267,106.012)" />
    <path
       id="path12"
       d="m 212.60106,0 c 0,7.82784 -6.34555,14.17339 -14.1734,14.17339 -7.82785,0 -14.1734,-6.34555 -14.1734,-14.17339 0,-7.82784 6.34555,-14.17339 14.1734,-14.17339 7.82785,0 14.1734,6.34555 14.1734,14.17339 z"
       style="fill:none;stroke:#000000;stroke-width:0.79701;stroke-linecap:butt;stroke-linejoin:miter;stroke-miterlimit:10;stroke-dasharray:none;stroke-opacity:1"
       transform="matrix(1.3333333,0,0,-1.3333333,38.326667,43.042667)" />
    <path
       id="path13"
       d="m 269.29468,0 c 0,7.82784 -6.34555,14.17339 -14.1734,14.17339 -7.82785,0 -14.17339,-6.34555 -14.17339,-14.17339 0,-7.82784 6.34554,-14.17339 14.17339,-14.17339 7.82785,0 14.1734,6.34555 14.1734,14.17339 z"
       style="fill:none;stroke:#000000;stroke-width:0.79701;stroke-linecap:butt;stroke-linejoin:miter;stroke-miterlimit:10;stroke-dasharray:none;stroke-opacity:1"
       transform="matrix(1.3333333,0,0,-1.3333333,38.326667,43.042667)" />
    <path
       id="path14"
       d="m 226.77448,-14.17339 c -2.34826,0 -4.25185,6.34555 -4.25185,14.17339 0,7.82784 1.90359,14.17339 4.25185,14.17339"
       style="fill:none;stroke:#000000;stroke-width:0.79701;stroke-linecap:butt;stroke-linejoin:miter;stroke-miterlimit:10;stroke-dasharray:none;stroke-opacity:1"
       transform="matrix(1.3333333,0,0,-1.3333333,38.326667,43.042667)" />
    <path
       id="path15"
       d="m 226.77448,-14.17339 c 2.34825,0 4.25182,6.34555 4.25182,14.17339 0,7.82784 -1.90357,14.17339 -4.25182,14.17339"
       style="fill:none;stroke:#000000;stroke-width:0.79701;stroke-linecap:butt;stroke-linejoin:miter;stroke-miterlimit:10;stroke-dasharray:2.98883, 2.98883;stroke-dashoffset:0;stroke-opacity:1"
       transform="matrix(1.3333333,0,0,-1.3333333,38.326667,43.042667)" />
    <path
       id="path16"
       d="m 198.42766,14.17339 c -0.78282,0 -1.41742,3.17277 -1.41742,7.0867 0,3.91391 0.6346,7.08668 1.41742,7.08668"
       style="fill:none;stroke:#000000;stroke-width:0.79701;stroke-linecap:butt;stroke-linejoin:miter;stroke-miterlimit:10;stroke-dasharray:none;stroke-opacity:1"
       transform="matrix(1.3333333,0,0,-1.3333333,38.326667,43.042667)" />
    <path
       id="path17"
       d="m 198.42766,14.17339 c 0.78282,0 1.41742,3.17277 1.41742,7.0867 0,3.91391 -0.6346,7.08668 -1.41742,7.08668"
       style="fill:none;stroke:#000000;stroke-width:0.79701;stroke-linecap:butt;stroke-linejoin:miter;stroke-miterlimit:10;stroke-dasharray:2.98883, 2.98883;stroke-dashoffset:0;stroke-opacity:1"
       transform="matrix(1.3333333,0,0,-1.3333333,38.326667,43.042667)" />
    <path
       id="path18"
       d="m 255.12128,14.17339 c -0.78282,0 -1.41742,3.17277 -1.41742,7.0867 0,3.91391 0.6346,7.08668 1.41742,7.08668"
       style="fill:none;stroke:#000000;stroke-width:0.79701;stroke-linecap:butt;stroke-linejoin:miter;stroke-miterlimit:10;stroke-dasharray:none;stroke-opacity:1"
       transform="matrix(1.3333333,0,0,-1.3333333,38.326667,43.042667)" />
    <path
       id="path19"
       d="m 255.12128,14.17339 c 0.78283,0 1.41742,3.17277 1.41742,7.0867 0,3.91391 -0.63459,7.08668 -1.41742,7.08668"
       style="fill:none;stroke:#000000;stroke-width:0.79701;stroke-linecap:butt;stroke-linejoin:miter;stroke-miterlimit:10;stroke-dasharray:2.98883, 2.98883;stroke-dashoffset:0;stroke-opacity:1"
       transform="matrix(1.3333333,0,0,-1.3333333,38.326667,43.042667)" />
    <path
       id="path20"
       d="m 198.42766,28.3468 c 14.1587,3.53966 14.18811,-14.17341 28.34682,-14.17341 14.15869,0 14.18811,17.71307 28.3468,14.17341 C 269.27998,24.80714 283.4681,14.15869 283.4681,0 c 0,-14.15869 -14.18812,-24.80714 -28.34682,-28.3468 -14.15869,-3.53966 -14.18811,14.17341 -28.3468,14.17341 -14.15871,0 -14.18812,-17.71307 -28.34682,-14.17341 -14.15869,3.53966 -28.3468,14.18811 -28.3468,28.3468 0,14.15869 14.18811,24.80714 28.3468,28.3468 z"
       style="fill:none;stroke:#000000;stroke-width:0.79701;stroke-linecap:butt;stroke-linejoin:miter;stroke-miterlimit:10;stroke-dasharray:none;stroke-opacity:1"
       transform="matrix(1.3333333,0,0,-1.3333333,38.326667,43.042667)" />
    <path
       id="path21"
       d="m 4.9102734,-4.6408359 c 0,-0.082031 -0.070312,-0.082031 -0.1875,-0.082031 H 0.85558594 c -0.17578125,0 -0.17578125,0.011719 -0.22265625,0.140625 l -0.421875,1.2304688 c -0.0117188,0.011719 -0.046875,0.1289062 -0.046875,0.1289062 0,0.035156 0.0351563,0.070312 0.0820313,0.070312 0.0703125,0 0.0820313,-0.035156 0.12890625,-0.140625 0.375,-1.0898437 0.55078125,-1.2070312 1.58203116,-1.2070312 h 0.2695314 c 0.1992187,0 0.1992187,0.023437 0.1992187,0.082031 0,0.035156 -0.023437,0.1171875 -0.023437,0.140625 l -0.9375,3.72656251 c -0.058594,0.2578125 -0.082031,0.33984375 -0.83203126,0.33984375 -0.24609375,0 -0.29296875,0 -0.29296875,0.12890625 0,0.0820312525 0.0820313,0.0820312525 0.1171875,0.0820312525 0.1875,0 0.38671875,-0.0117187525 0.57421881,-0.0117187525 l 0.5976562,-0.01171875 0.5742188,0.01171875 c 0.1992187,0 0.4101562,0.0117187525 0.609375,0.0117187525 0.070312,0 0.1523437,0 0.1523437,-0.1406250025 0,-0.0703125 -0.058594,-0.0703125 -0.234375,-0.0703125 -0.1757812,0 -0.2695312,0 -0.4453125,-0.0234375 -0.2109375,-0.0117188 -0.2578125,-0.0351563 -0.2578125,-0.15234375 0,0 0,-0.0351563 0.023437,-0.140625 L 2.9766797,-4.2306797 c 0.046875,-0.1992187 0.082031,-0.234375 0.1640625,-0.2578125 0.058594,-0.011719 0.2929687,-0.011719 0.4335937,-0.011719 0.703125,0 1.0195313,0.023437 1.0195313,0.5625 0,0.1054687 -0.023437,0.3867187 -0.058594,0.5625 0,0.023437 -0.011719,0.1171875 -0.011719,0.1289062 0,0.046875 0.011719,0.09375 0.082031,0.09375 0.070312,0 0.082031,-0.058594 0.1054688,-0.1640625 l 0.1875,-1.2070312 c 0,-0.035156 0.011719,-0.09375 0.011719,-0.1171872 z m 4.4238282,5.8359375 h -0.234375 c -0.023437,0.1523437 -0.082031,0.5625 -0.1757813,0.6328125 -0.058594,0.035156 -0.5976562,0.035156 -0.6914062,0.035156 H 6.9434766 c 0.7382812,-0.6445312 0.984375,-0.84375 1.3945312,-1.17187499 0.515625,-0.41015625 0.9960938,-0.84375 0.9960938,-1.5 0,-0.84375001 -0.7382813,-1.35937501 -1.6289063,-1.35937501 -0.8671875,0 -1.453125,0.609375 -1.453125,1.24218751 0,0.36328125 0.3046875,0.3984375 0.375,0.3984375 0.1640625,0 0.375,-0.1171875 0.375,-0.375 0,-0.12890621 -0.058594,-0.36328121 -0.421875,-0.36328121 0.2226563,-0.5039063 0.6914063,-0.65625 1.0195313,-0.65625 0.703125,0 1.0664062,0.5507812 1.0664062,1.11328121 0,0.609375 -0.4335937,1.08984375 -0.65625,1.3359375 l -1.6875,1.66406249 c -0.070312,0.058594 -0.070312,0.070312 -0.070312,0.2695313 h 2.8828125 z m 8.7568364,-3.609375 c 0,-0.082031 -0.07031,-0.140625 -0.140625,-0.140625 h -4.371094 c -0.07031,0 -0.140625,0.058594 -0.140625,0.140625 0,0.070312 0.07031,0.1289062 0.140625,0.1289062 h 4.371094 c 0.07031,0 0.140625,-0.058594 0.140625,-0.1289062 z m 0,1.3476562 c 0,-0.082031 -0.07031,-0.140625 -0.140625,-0.140625 h -4.371094 c -0.07031,0 -0.140625,0.058594 -0.140625,0.140625 0,0.0820313 0.07031,0.14062501 0.140625,0.14062501 h 4.371094 c 0.07031,0 0.140625,-0.0585938 0.140625,-0.14062501 z M 27.63,-4.6173984 c 0,-0.140625 -0.128906,-0.140625 -0.246094,-0.140625 h -3.386718 c -0.09375,0 -0.246094,0 -0.246094,0.140625 0,0.1289062 0.152344,0.1289062 0.246094,0.1289062 h 1.101562 v 4.24218751 c 0,0.22265625 0.03516,0.2460937525 0.257813,0.2460937525 h 0.679687 c 0.222656,0 0.234375,-0.0234375025 0.234375,-0.2460937525 V -4.4884922 h 1.113281 c 0.117188,0 0.246094,0 0.246094,-0.1289062 z m -1.628906,4.33593746 H 25.38 V -4.4884922 h 0.621094 z m 7.171875,-6.04394536 h -0.234375 c -0.02344,0.1523438 -0.08203,0.5625 -0.175781,0.6328125 -0.05859,0.035156 -0.597657,0.035156 -0.691407,0.035156 h -1.289062 c 0.738281,-0.6445313 0.984375,-0.84375 1.394531,-1.171875 0.515625,-0.4101563 0.996094,-0.84375 0.996094,-1.5 0,-0.84375 -0.738281,-1.359375 -1.628906,-1.359375 -0.867188,0 -1.453125,0.609375 -1.453125,1.2421875 0,0.3632812 0.304687,0.3984375 0.375,0.3984375 0.164062,0 0.375,-0.1171875 0.375,-0.375 0,-0.1289063 -0.05859,-0.3632813 -0.421875,-0.3632813 0.222656,-0.5039062 0.691406,-0.65625 1.019531,-0.65625 0.703125,0 1.066406,0.5507813 1.066406,1.1132813 0,0.609375 -0.433594,1.0898437 -0.65625,1.3359375 l -1.6875,1.6640625 c -0.07031,0.058594 -0.07031,0.070312 -0.07031,0.2695312 h 2.882812 z m 8.027344,5.2587891 c 0,-0.140625 -0.140625,-0.140625 -0.246094,-0.140625 h -1.464844 l 0.28125,-1.078125 h 1.183594 c 0.105469,0 0.246094,0 0.246094,-0.1289062 0,-0.140625 -0.140625,-0.140625 -0.234375,-0.140625 h -1.113282 l 0.539063,-2.015625 c 0.01172,-0.023437 0.03516,-0.1054688 0.03516,-0.1289063 0,-0.082031 -0.07031,-0.140625 -0.140625,-0.140625 -0.117187,0 -0.140625,0.09375 -0.152344,0.1640625 l -0.574218,2.1210938 H 38.25891 l 0.539063,-2.015625 c 0.01172,-0.023437 0.02344,-0.1054688 0.02344,-0.1289063 0,-0.082031 -0.05859,-0.140625 -0.128906,-0.140625 -0.117187,0 -0.140625,0.09375 -0.164062,0.1640625 l -0.5625,2.1210938 h -1.558594 c -0.09375,0 -0.234375,0 -0.234375,0.140625 0,0.1289062 0.140625,0.1289062 0.246094,0.1289062 h 1.464843 l -0.28125,1.078125 H 36.41907 c -0.105469,0 -0.246094,0 -0.246094,0.140625 0,0.14062501 0.140625,0.14062501 0.234375,0.14062501 h 1.113281 L 36.981563,1.0896328 c -0.01172,0.011719 -0.03516,0.09375 -0.03516,0.1289063 0,0.070312 0.07031,0.1289062 0.140625,0.1289062 0.117188,0 0.140625,-0.082031 0.152344,-0.1640625 l 0.574219,-2.10937499 h 1.300781 L 38.575313,1.0896328 c -0.01172,0.011719 -0.02344,0.09375 -0.02344,0.1289063 0,0.070312 0.05859,0.1289062 0.140625,0.1289062 0.105469,0 0.128906,-0.082031 0.152344,-0.1640625 l 0.5625,-2.10937499 h 1.558594 c 0.09375,0 0.234375,0 0.234375,-0.14062501 z m -1.722657,-1.21875 -0.269531,1.078125 h -1.3125 l 0.269531,-1.078125 z m 10.327149,-2.3320312 c 0,-0.140625 -0.128907,-0.140625 -0.246094,-0.140625 h -3.386719 c -0.09375,0 -0.246094,0 -0.246094,0.140625 0,0.1289062 0.152344,0.1289062 0.246094,0.1289062 h 1.101563 v 4.24218751 c 0,0.22265625 0.03516,0.2460937525 0.257812,0.2460937525 h 0.679688 c 0.222656,0 0.234375,-0.0234375025 0.234375,-0.2460937525 V -4.4884922 h 1.113281 c 0.117187,0 0.246094,0 0.246094,-0.1289062 z m -1.628907,4.33593746 H 47.554805 V -4.4884922 h 0.621093 z m 7.171875,-6.04394536 h -0.234375 c -0.02344,0.1523438 -0.08203,0.5625 -0.175781,0.6328125 -0.05859,0.035156 -0.597656,0.035156 -0.691406,0.035156 h -1.289063 c 0.738282,-0.6445313 0.984375,-0.84375 1.394532,-1.171875 0.515625,-0.4101563 0.996093,-0.84375 0.996093,-1.5 0,-0.84375 -0.738281,-1.359375 -1.628906,-1.359375 -0.867187,0 -1.453125,0.609375 -1.453125,1.2421875 0,0.3632812 0.304688,0.3984375 0.375,0.3984375 0.164063,0 0.375,-0.1171875 0.375,-0.375 0,-0.1289063 -0.05859,-0.3632813 -0.421875,-0.3632813 0.222656,-0.5039062 0.691406,-0.65625 1.019531,-0.65625 0.703125,0 1.066407,0.5507813 1.066407,1.1132813 0,0.609375 -0.433594,1.0898437 -0.65625,1.3359375 l -1.6875,1.6640625 c -0.07031,0.058594 -0.07031,0.070312 -0.07031,0.2695312 h 2.882813 z m 0,0"
       style="fill:#000000;fill-opacity:1;fill-rule:nonzero;stroke:none"
       aria-label="ð‘‡&#10;2&#10;=ð•‹&#10;2&#10;#ð•‹&#10;2"
       transform="matrix(1.3333333,0,0,1.3333333,303.16,106.012)" />
  </g>
</svg>
